<svg width="25" height="25" viewBox="0 0 25 25" fill="none" xmlns="http://www.w3.org/2000/svg">
<path d="M5.74738 3.80213L5.75 3.77087V3.73949C5.75 3.00908 5.95234 2.21991 6.3259 1.63701C6.6897 1.06935 7.17177 0.75 7.77778 0.75C8.61136 0.75 9.38232 1.3092 9.98743 2.28597C10.5868 3.25344 10.9167 4.47688 10.9167 5.43927C10.9167 6.16968 10.7143 6.95885 10.3408 7.54175C9.97697 8.10941 9.4949 8.42876 8.88889 8.42876C7.94186 8.42876 7.12989 7.84442 6.54035 6.89279C5.9485 5.93743 5.66905 4.73685 5.74738 3.80213ZM12.8177 21.8092L12.3927 21.5314L11.9769 21.8228C10.922 22.5624 10.1494 23.0481 9.38933 23.3569C8.64865 23.6578 7.88957 23.8022 6.85871 23.8022C6.31922 23.8022 5.70204 23.5654 5.2199 23.143C4.74376 22.7258 4.4537 22.1782 4.4537 21.5871C4.4537 20.8478 4.74728 20.0387 5.29902 19.1852C5.84829 18.3356 6.62289 17.4898 7.50605 16.6928C9.12275 15.234 11.0335 14.0012 12.3866 13.2676C14.0646 14.267 16.0132 15.5169 17.5759 16.9286C19.2819 18.4698 20.3611 20.0553 20.3611 21.5871C20.3611 22.1548 19.9851 22.6951 19.2848 23.1362C18.59 23.5738 17.7363 23.8022 17.1468 23.8022C15.7083 23.8022 14.6823 23.0912 13.5628 22.3154C13.3205 22.1475 13.0739 21.9766 12.8177 21.8092ZM19.0648 3.90947C19.0648 4.77819 18.7398 5.95778 18.1391 6.90838C17.5333 7.86716 16.7616 8.42876 15.9259 8.42876C15.3199 8.42876 14.8378 8.10941 14.474 7.54175C14.1005 6.95885 13.8981 6.16968 13.8981 5.43927C13.8981 4.57055 14.2232 3.39096 14.8238 2.44036C15.4297 1.48158 16.2014 0.919977 17.037 0.919977C17.643 0.919977 18.1251 1.23932 18.4889 1.80699C18.8625 2.38989 19.0648 3.17906 19.0648 3.90947ZM19.2685 12.7483C19.2685 11.8077 19.6317 10.6371 20.2703 9.71063C20.9122 8.77929 21.7306 8.22899 22.5926 8.22899C23.0455 8.22899 23.4389 8.45438 23.745 8.87586C24.0587 9.30771 24.25 9.91421 24.25 10.5386C24.25 11.4791 23.8868 12.6498 23.2482 13.5762C22.6063 14.5076 21.788 15.0579 20.9259 15.0579C20.3605 15.0579 19.9815 14.8149 19.7157 14.4275C19.4302 14.0113 19.2685 13.4067 19.2685 12.7483ZM2.40741 8.22899C3.1673 8.22899 3.98901 8.76734 4.66667 9.71979C5.3337 10.6573 5.73148 11.8257 5.73148 12.7483C5.73148 13.4067 5.56982 14.0113 5.2843 14.4275C5.01853 14.8149 4.63948 15.0579 4.07407 15.0579C3.31418 15.0579 2.49248 14.5195 1.81481 13.5671C1.14778 12.6296 0.75 11.4612 0.75 10.5386C0.75 9.88015 0.911666 9.27558 1.19718 8.85936C1.46295 8.47192 1.842 8.22899 2.40741 8.22899Z" fill="#FFFDFD" stroke="#7C7C7C" stroke-width="1.5"/>
</svg>
