<svg width="43" height="42" viewBox="0 0 43 42" fill="none" xmlns="http://www.w3.org/2000/svg">
<path d="M27.4096 15.5745C31.4243 15.5745 33.8949 10.1887 33.8949 6.78718C33.8949 3.95257 32.3507 0.551039 29.2625 0.551039C25.2478 0.551039 22.7772 5.9368 22.7772 9.33833C22.7772 12.1729 24.3214 15.5745 27.4096 15.5745ZM15.6743 15.5745C18.7625 15.5745 20.3067 12.1729 20.3067 9.33833C20.3067 5.65334 17.8361 0.267578 13.8214 0.267578C10.7332 0.267578 9.18904 3.66911 9.18904 6.50372C8.88022 10.1887 11.3508 15.5745 15.6743 15.5745ZM38.5272 12.7399C34.5125 12.7399 31.7331 17.8422 31.7331 21.5271C31.7331 24.0783 32.9684 26.6294 35.7478 26.6294C39.7625 26.6294 42.5419 21.5271 42.5419 17.8422C42.5419 15.291 40.9978 12.7399 38.5272 12.7399ZM11.6596 21.5271C11.6596 17.8422 8.5714 12.7399 4.86552 12.7399C2.08612 12.7399 0.85083 15.291 0.85083 17.8422C0.85083 21.5271 3.93906 26.6294 7.64493 26.6294C10.4243 26.6294 11.6596 24.0783 11.6596 21.5271ZM21.5419 20.9602C16.8639 23.3644 7.02728 30.031 7.02728 36.2671C7.02728 39.1017 9.81812 41.2119 12.2887 41.2119C15.9946 41.2119 18.0076 40.1621 21.5419 37.6844C23.7266 39.1122 26.0485 41.2119 29.4455 41.2119C31.9161 41.2119 36.0566 39.3852 36.0566 36.2671C36.0566 30.031 27.4096 24.4142 21.5419 20.9602Z" fill="#000000"/>
</svg>
