<svg width="19" height="36" viewBox="0 0 19 36" fill="none" xmlns="http://www.w3.org/2000/svg">
<path d="M1.35013 34.2919C0.924797 33.8021 0.685856 33.1379 0.685856 32.4453C0.685856 31.7527 0.924797 31.0884 1.35013 30.5986L12.5807 17.6696L1.35013 4.74056C0.93685 4.24794 0.708166 3.58816 0.713335 2.90333C0.718504 2.21849 0.957112 1.56338 1.37777 1.07911C1.79842 0.594836 2.36747 0.320146 2.96234 0.314195C3.55721 0.308244 4.13032 0.57151 4.55822 1.04729L17.3929 15.823C17.8182 16.3128 18.0571 16.977 18.0571 17.6696C18.0571 18.3622 17.8182 19.0264 17.3929 19.5162L4.55822 34.2919C4.13276 34.7816 3.55578 35.0566 2.95418 35.0566C2.35257 35.0566 1.7756 34.7816 1.35013 34.2919Z" fill="#000000"/>
</svg>
