<svg width="36" height="18" viewBox="0 0 36 18" fill="none" xmlns="http://www.w3.org/2000/svg">
<path d="M1.50741 1.09183C1.99722 0.666496 2.66146 0.427555 3.35405 0.427555C4.04663 0.427555 4.71087 0.666496 5.20068 1.09183L18.1297 12.3224L31.0588 1.09183C31.5514 0.678551 32.2112 0.449867 32.896 0.455036C33.5808 0.460205 34.2359 0.698812 34.7202 1.11947C35.2045 1.54012 35.4792 2.10917 35.4851 2.70404C35.4911 3.29891 35.2278 3.87202 34.752 4.29992L19.9763 17.1346C19.4865 17.5599 18.8223 17.7988 18.1297 17.7988C17.4371 17.7988 16.7729 17.5599 16.2831 17.1346L1.50741 4.29992C1.01775 3.87446 0.742676 3.29748 0.742676 2.69588C0.742676 2.09427 1.01775 1.5173 1.50741 1.09183Z" fill="#000000"/>
</svg>
