<svg width="36" height="18" viewBox="0 0 36 18" fill="none" xmlns="http://www.w3.org/2000/svg">
<path d="M34.7204 17.1347C34.2306 17.5601 33.5663 17.799 32.8737 17.799C32.1811 17.799 31.5169 17.5601 31.0271 17.1347L18.0981 5.90414L5.16902 17.1347C4.67641 17.548 4.01663 17.7767 3.33179 17.7715C2.64695 17.7664 1.99185 17.5277 1.50757 17.1071C1.0233 16.6864 0.74861 16.1174 0.742659 15.5225C0.736708 14.9276 0.999975 14.3545 1.47576 13.9266L16.2514 1.09201C16.7412 0.666673 17.4055 0.427733 18.0981 0.427733C18.7907 0.427733 19.4549 0.666673 19.9447 1.09201L34.7204 13.9266C35.21 14.3521 35.4851 14.9291 35.4851 15.5307C35.4851 16.1323 35.21 16.7093 34.7204 17.1347Z" fill="#000000"/>
</svg>
