<svg width="47" height="47" viewBox="0 0 47 47" fill="none" xmlns="http://www.w3.org/2000/svg">
<path d="M23.5 0C18.8521 0 14.3087 1.37825 10.4441 3.96046C6.57955 6.54268 3.5675 10.2129 1.78884 14.5069C0.0101822 18.801 -0.455196 23.5261 0.451556 28.0846C1.35831 32.6432 3.59647 36.8305 6.883 40.117C10.1695 43.4035 14.3568 45.6417 18.9154 46.5484C23.4739 47.4552 28.199 46.9898 32.4931 45.2112C36.7871 43.4325 40.4573 40.4204 43.0395 36.5559C45.6217 32.6913 47 28.1479 47 23.5C46.9934 17.2694 44.5154 11.2959 40.1097 6.89026C35.7041 2.48458 29.7306 0.00657959 23.5 0ZM21.6923 12.6538C21.6923 12.1744 21.8828 11.7146 22.2218 11.3756C22.5608 11.0366 23.0206 10.8462 23.5 10.8462C23.9794 10.8462 24.4392 11.0366 24.7782 11.3756C25.1172 11.7146 25.3077 12.1744 25.3077 12.6538V25.3077C25.3077 25.7871 25.1172 26.2469 24.7782 26.5859C24.4392 26.9249 23.9794 27.1154 23.5 27.1154C23.0206 27.1154 22.5608 26.9249 22.2218 26.5859C21.8828 26.2469 21.6923 25.7871 21.6923 25.3077V12.6538ZM23.5 36.1538C22.9637 36.1538 22.4395 35.9948 21.9936 35.6969C21.5476 35.3989 21.2001 34.9754 20.9949 34.48C20.7896 33.9845 20.7359 33.4393 20.8406 32.9133C20.9452 32.3873 21.2034 31.9042 21.5827 31.525C21.9619 31.1457 22.445 30.8875 22.971 30.7829C23.497 30.6782 24.0422 30.7319 24.5377 30.9372C25.0331 31.1424 25.4566 31.4899 25.7546 31.9359C26.0525 32.3818 26.2115 32.906 26.2115 33.4423C26.2115 34.1614 25.9259 34.8511 25.4174 35.3596C24.9088 35.8682 24.2192 36.1538 23.5 36.1538Z" fill="#11264E"/>
</svg>
