<svg width="40" height="32" viewBox="0 0 40 32" fill="none" xmlns="http://www.w3.org/2000/svg">
<path d="M38.5986 0.48047H28.6179C26.4761 0.48047 24.3822 1.09554 22.5806 2.25589L20.4519 3.62126L18.3231 2.25589C16.5233 1.09576 14.4271 0.479325 12.2858 0.48047H2.30509C1.53298 0.48047 0.90918 1.10427 0.90918 1.87638V26.6537C0.90918 27.4258 1.53298 28.0496 2.30509 28.0496H12.2858C14.4277 28.0496 16.5215 28.6647 18.3231 29.825L20.2599 31.0726C20.3166 31.1075 20.3821 31.1293 20.4475 31.1293C20.5129 31.1293 20.5784 31.1119 20.6351 31.0726L22.5719 29.825C24.3778 28.6647 26.4761 28.0496 28.6179 28.0496H38.5986C39.3707 28.0496 39.9945 27.4258 39.9945 26.6537V1.87638C39.9945 1.10427 39.3707 0.48047 38.5986 0.48047ZM15.7407 17.6021C15.7407 17.781 15.6011 17.9293 15.431 17.9293H7.32598C7.15586 17.9293 7.01627 17.781 7.01627 17.6021V15.6391C7.01627 15.4603 7.15586 15.312 7.32598 15.312H15.4266C15.5967 15.312 15.7363 15.4603 15.7363 15.6391V17.6021H15.7407ZM15.7407 11.495C15.7407 11.6739 15.6011 11.8222 15.431 11.8222H7.32598C7.15586 11.8222 7.01627 11.6739 7.01627 11.495V9.53205C7.01627 9.3532 7.15586 9.20488 7.32598 9.20488H15.4266C15.5967 9.20488 15.7363 9.3532 15.7363 9.53205V11.495H15.7407ZM33.8875 17.6021C33.8875 17.781 33.7479 17.9293 33.5777 17.9293H25.4728C25.3026 17.9293 25.163 17.781 25.163 17.6021V15.6391C25.163 15.4603 25.3026 15.312 25.4728 15.312H33.5734C33.7435 15.312 33.8831 15.4603 33.8831 15.6391V17.6021H33.8875ZM33.8875 11.495C33.8875 11.6739 33.7479 11.8222 33.5777 11.8222H25.4728C25.3026 11.8222 25.163 11.6739 25.163 11.495V9.53205C25.163 9.3532 25.3026 9.20488 25.4728 9.20488H33.5734C33.7435 9.20488 33.8831 9.3532 33.8831 9.53205V11.495H33.8875Z" fill="#000000"/>
</svg>
