<svg width="45" height="43" viewBox="0 0 45 43" fill="none" xmlns="http://www.w3.org/2000/svg">
<path d="M25.5401 14.0625C23.7665 14.0625 16.1517 14.2365 11.25 21.6167V14.0625C11.25 9.40957 7.46543 5.625 2.8125 5.625C1.25947 5.625 0 6.88447 0 8.4375C0 9.99053 1.25947 11.25 2.8125 11.25C4.36289 11.25 5.625 12.5121 5.625 14.0625V36.5625C5.625 39.665 8.14746 42.1875 11.25 42.1875H26.7188C27.4957 42.1875 28.125 41.5582 28.125 40.7812V39.375C28.125 37.822 26.8655 36.5625 25.3125 36.5625H22.5L33.75 28.125V40.7812C33.75 41.5582 34.3793 42.1875 35.1562 42.1875H37.9688C38.7457 42.1875 39.375 41.5582 39.375 40.7812V22.6635C38.4706 22.8981 37.539 23.0625 36.5625 23.0625C31.13 23.0625 26.5852 19.1909 25.5401 14.0625ZM39.375 5.625H33.75L28.125 0V11.8125C28.125 16.4725 31.9025 20.25 36.5625 20.25C41.2225 20.25 45 16.4725 45 11.8125V0L39.375 5.625ZM33.0469 12.6562C32.2699 12.6562 31.6406 12.027 31.6406 11.25C31.6406 10.473 32.2699 9.84375 33.0469 9.84375C33.8238 9.84375 34.4531 10.473 34.4531 11.25C34.4531 12.027 33.8238 12.6562 33.0469 12.6562ZM40.0781 12.6562C39.3012 12.6562 38.6719 12.027 38.6719 11.25C38.6719 10.473 39.3012 9.84375 40.0781 9.84375C40.8551 9.84375 41.4844 10.473 41.4844 11.25C41.4844 12.027 40.8551 12.6562 40.0781 12.6562Z" fill="#000000"/>
</svg>
