<svg width="39" height="30" viewBox="0 0 39 30" fill="none" xmlns="http://www.w3.org/2000/svg">
<path d="M24.7398 4.4234L21.3687 7.8135C20.0767 7.4668 18.7161 7.46643 17.4239 7.81243C16.1317 8.15843 14.9534 8.83859 14.0074 9.78452C13.0615 10.7304 12.3814 11.9088 12.0354 13.201C11.6894 14.4932 11.6897 15.8538 12.0364 17.1458L6.77986 22.3833C4.26585 20.4788 2.17085 18.0028 0.723389 15.1651C2.89633 10.9043 6.46177 7.51527 10.8273 5.56119C15.1928 3.60711 20.0955 3.20561 24.7207 4.4234H24.7398ZM31.9771 7.94681C34.5101 9.85137 36.6051 12.3273 38.0716 15.1651C35.8972 19.4337 32.3256 22.8282 27.9519 24.7829C23.5783 26.7375 18.6668 27.1341 14.0362 25.9067L17.4073 22.5166C18.6993 22.8633 20.0598 22.8637 21.3521 22.5177C22.6443 22.1717 23.8226 21.4915 24.7685 20.5456C25.7145 19.5997 26.3946 18.4213 26.7406 17.1291C27.0866 15.8369 27.0863 14.4764 26.7396 13.1843L31.9961 7.94681H31.9771ZM31.5009 0.347656L34.2054 3.05212L7.27504 29.9825L4.57058 27.278L31.5009 0.347656Z" fill="#1F2F4D"/>
</svg>
