<svg width="32" height="32" viewBox="0 0 32 32" fill="none" xmlns="http://www.w3.org/2000/svg">
<path fill-rule="evenodd" clip-rule="evenodd" d="M16.0182 20.3284L26.7947 31.1069C27.3665 31.6787 28.1421 32 28.9508 32C29.7595 32 30.5351 31.6787 31.1069 31.1069C31.6787 30.5351 32 29.7595 32 28.9508C32 28.1421 31.6787 27.3665 31.1069 26.7947L20.3264 16.0182L31.1049 5.24178C31.3879 4.95864 31.6124 4.62252 31.7655 4.25263C31.9186 3.88274 31.9973 3.48631 31.9972 3.08598C31.9972 2.68564 31.9182 2.28925 31.7649 1.91943C31.6116 1.54961 31.387 1.2136 31.1039 0.930589C30.8207 0.647578 30.4846 0.423109 30.1147 0.269996C29.7448 0.116883 29.3484 0.0381249 28.9481 0.0382193C28.5477 0.0383136 28.1513 0.117258 27.7815 0.270545C27.4117 0.423833 27.0757 0.648461 26.7927 0.931605L16.0182 11.7081L5.24175 0.931605C4.9607 0.64034 4.62445 0.407964 4.25264 0.248037C3.88082 0.0881104 3.48087 0.00383443 3.07613 0.00012783C2.6714 -0.00357877 2.26997 0.0733576 1.89529 0.226448C1.5206 0.379538 1.18016 0.605717 0.893819 0.891786C0.60748 1.17785 0.38098 1.51809 0.227537 1.89263C0.0740928 2.26717 -0.00322209 2.66852 0.000102861 3.07326C0.00342781 3.478 0.0873257 3.87802 0.246902 4.24999C0.406478 4.62196 0.638537 4.95842 0.929537 5.23975L11.7101 16.0182L0.93157 26.7947C0.359735 27.3665 0.0384812 28.1421 0.0384812 28.9508C0.0384812 29.7595 0.359735 30.5351 0.93157 31.1069C1.50341 31.6787 2.27898 32 3.08768 32C3.89637 32 4.67195 31.6787 5.24378 31.1069L16.0182 20.3264V20.3284Z" fill="#000000"/>
</svg>
