<svg width="20" height="20" viewBox="0 0 20 20" fill="none" xmlns="http://www.w3.org/2000/svg">
<path d="M10 4.86021C9.02952 4.86021 8.08083 5.16158 7.27391 5.72621C6.46698 6.29085 5.83806 7.09338 5.46668 8.03233C5.09529 8.97129 4.99812 10.0045 5.18745 11.0013C5.37678 11.9981 5.84411 12.9137 6.53034 13.6323C7.21658 14.3509 8.09089 14.8403 9.04272 15.0386C9.99456 15.2369 10.9812 15.1351 11.8778 14.7462C12.7744 14.3573 13.5407 13.6987 14.0799 12.8536C14.6191 12.0086 14.9068 11.0151 14.9068 9.99878C14.9068 8.63595 14.3899 7.32893 13.4697 6.36526C12.5494 5.40159 11.3014 4.86021 10 4.86021ZM10 13.9955C9.24518 13.9955 8.50731 13.7611 7.87971 13.3219C7.2521 12.8827 6.76294 12.2585 6.47408 11.5282C6.18523 10.7979 6.10965 9.99435 6.2569 9.21907C6.40416 8.44379 6.76764 7.73165 7.30138 7.17271C7.83512 6.61376 8.51514 6.23312 9.25545 6.07891C9.99577 5.92469 10.7631 6.00384 11.4605 6.30634C12.1578 6.60884 12.7539 7.1211 13.1732 7.77835C13.5926 8.4356 13.8164 9.20831 13.8164 9.99878C13.8164 11.0588 13.4143 12.0753 12.6986 12.8249C11.9829 13.5744 11.0122 13.9955 10 13.9955ZM19.7682 7.78158C19.7516 7.70261 19.7196 7.62807 19.6742 7.56259C19.6289 7.49711 19.5712 7.44209 19.5047 7.40095L17.2876 6.1163C17.1579 5.84384 17.0122 5.58006 16.8514 5.32648L16.8968 2.68107C16.8979 2.59878 16.8822 2.5172 16.8509 2.44174C16.8196 2.36627 16.7733 2.29864 16.7151 2.24334C15.6606 1.23747 14.4117 0.481258 13.0531 0.0261375C12.9778 0.00184043 12.8984 -0.0056323 12.8202 0.00420258C12.7419 0.0140375 12.6665 0.0409609 12.5988 0.0832327L10.4362 1.444C10.1457 1.42498 9.85433 1.42498 9.56384 1.444L7.39211 0.0832327C7.32579 0.0417496 7.25192 0.0152418 7.17524 0.00540939C7.09857 -0.00442298 7.02078 0.00263742 6.94686 0.0261375C5.58649 0.48158 4.33697 1.24137 3.28491 2.25285C3.22695 2.30631 3.1807 2.37225 3.14934 2.44616C3.11797 2.52006 3.10222 2.6002 3.10317 2.68107L3.1486 5.32648C2.98504 5.58341 2.83966 5.84986 2.70336 6.1163L0.49528 7.40095C0.427694 7.44067 0.369137 7.49527 0.323644 7.56099C0.278151 7.6267 0.246805 7.70196 0.231765 7.78158C-0.0772549 9.242 -0.0772549 10.7556 0.231765 12.216C0.24843 12.295 0.280421 12.3695 0.325753 12.435C0.371085 12.5005 0.428789 12.5555 0.49528 12.5966L2.71244 13.8813C2.8421 14.1537 2.98777 14.4175 3.1486 14.6711L3.10317 17.3165C3.1021 17.3988 3.11776 17.4804 3.14909 17.5558C3.18042 17.6313 3.22672 17.6989 3.28491 17.7542C4.33937 18.7601 5.58834 19.5163 6.94686 19.9714C7.02219 19.9957 7.10155 20.0032 7.17981 19.9934C7.25807 19.9835 7.33349 19.9566 7.4012 19.9143L9.56384 18.5536C9.85433 18.5726 10.1457 18.5726 10.4362 18.5536L12.6079 19.9143C12.6917 19.9712 12.7897 20.001 12.8896 20L13.0531 19.9714C14.4135 19.516 15.663 18.7562 16.7151 17.7447C16.7731 17.6913 16.8193 17.6253 16.8507 17.5514C16.882 17.4775 16.8978 17.3974 16.8968 17.3165L16.8514 14.6711C17.015 14.4142 17.1603 14.1477 17.2966 13.8813L19.5047 12.5966C19.5723 12.5569 19.6309 12.5023 19.6764 12.4366C19.7218 12.3709 19.7532 12.2956 19.7682 12.216C20.0773 10.7556 20.0773 9.242 19.7682 7.78158ZM18.7505 11.7212L16.6151 12.9677C16.5158 13.0223 16.4361 13.1091 16.388 13.2152C16.232 13.547 16.056 13.868 15.8609 14.1763C15.7982 14.2751 15.7636 14.3906 15.761 14.5093L15.8064 17.0691C14.9677 17.829 13.9998 18.4166 12.9532 18.801L10.8542 17.4783C10.7678 17.4287 10.671 17.4025 10.5725 17.4021H10.5361C10.1823 17.4307 9.82683 17.4307 9.47297 17.4021C9.35916 17.3934 9.24539 17.4198 9.14585 17.4783L7.04681 18.801C6.00392 18.4127 5.03713 17.8291 4.19358 17.0786L4.23901 14.5188C4.24239 14.4006 4.21064 14.2843 4.14815 14.1858C3.94482 13.8778 3.76554 13.5533 3.61203 13.2152C3.56388 13.1091 3.48416 13.0223 3.38486 12.9677L1.24948 11.7212C1.04043 10.5833 1.04043 9.41422 1.24948 8.27641L3.38486 7.02983C3.48416 6.97528 3.56388 6.88846 3.61203 6.78241C3.76797 6.45061 3.94401 6.12959 4.13906 5.82131C4.20591 5.72454 4.24098 5.60767 4.23901 5.48825L4.19358 2.92848C5.03352 2.17037 6.00115 1.58302 7.04681 1.19659L9.14585 2.5193C9.24237 2.57697 9.35302 2.60345 9.46388 2.59543C9.81774 2.56689 10.1732 2.56689 10.527 2.59543C10.6408 2.60421 10.7546 2.57774 10.8542 2.5193L12.9532 1.19659C13.9961 1.5849 14.9629 2.16851 15.8064 2.91897L15.761 5.47874C15.7618 5.59634 15.7932 5.71149 15.8519 5.81179C16.0552 6.11972 16.2345 6.44431 16.388 6.78241C16.4361 6.88846 16.5158 6.97528 16.6151 7.02983L18.7505 8.27641C18.9596 9.41422 18.9596 10.5833 18.7505 11.7212Z" fill="#7C7C7C"/>
</svg>
