<svg width="45" height="43" viewBox="0 0 45 43" fill="none" xmlns="http://www.w3.org/2000/svg">
<path d="M23.3842 16.8775L36.5625 21.5841V40.7838C36.5625 41.1567 36.4143 41.5144 36.1506 41.7781C35.8869 42.0419 35.5292 42.19 35.1562 42.19H29.5312C29.1583 42.19 28.8006 42.0419 28.5369 41.7781C28.2732 41.5144 28.125 41.1567 28.125 40.7838V30.94H14.0625V40.7838C14.0625 41.1567 13.9143 41.5144 13.6506 41.7781C13.3869 42.0419 13.0292 42.19 12.6562 42.19H7.03125C6.65829 42.19 6.3006 42.0419 6.03688 41.7781C5.77316 41.5144 5.625 41.1567 5.625 40.7838V21.9831C2.35898 20.8185 0 17.7265 0 14.065C0 13.3191 0.296316 12.6037 0.823762 12.0763C1.35121 11.5488 2.06658 11.2525 2.8125 11.2525C3.55842 11.2525 4.27379 11.5488 4.80124 12.0763C5.32868 12.6037 5.625 13.3191 5.625 14.065C5.62639 14.8105 5.92316 15.5251 6.4503 16.0522C6.97745 16.5794 7.69201 16.8761 8.4375 16.8775H23.3842ZM45 7.03376V9.84626C45 11.3381 44.4074 12.7688 43.3525 13.8237C42.2976 14.8786 40.8668 15.4713 39.375 15.4713H36.5625V18.5984L25.3125 14.5809V1.40876C25.3125 0.15632 26.826 -0.471219 27.7128 0.414719L30.1104 2.81501H34.824C35.7829 2.81501 36.9114 3.51111 37.3395 4.3698L37.9688 5.62751H43.5938C43.9667 5.62751 44.3244 5.77567 44.5881 6.03939C44.8518 6.30312 45 6.6608 45 7.03376ZM35.1562 7.03376C35.1562 6.75563 35.0738 6.48375 34.9193 6.25249C34.7647 6.02124 34.5451 5.84099 34.2881 5.73456C34.0312 5.62812 33.7484 5.60027 33.4757 5.65453C33.2029 5.70879 32.9523 5.84273 32.7556 6.03939C32.559 6.23606 32.425 6.48663 32.3708 6.75942C32.3165 7.0322 32.3444 7.31495 32.4508 7.57191C32.5572 7.82887 32.7375 8.0485 32.9687 8.20302C33.2 8.35754 33.4719 8.44001 33.75 8.44001C34.123 8.44001 34.4806 8.29185 34.7444 8.02813C35.0081 7.76441 35.1562 7.40672 35.1562 7.03376Z" fill="#000000"/>
</svg>
