<svg width="47" height="47" viewBox="0 0 47 47" fill="none" xmlns="http://www.w3.org/2000/svg">
<path d="M23.5 0C21.3428 0 19.262 0.275391 17.2578 0.826172C15.2536 1.37695 13.387 2.17253 11.6582 3.21289C9.92936 4.25326 8.34587 5.47721 6.90771 6.88477C5.46956 8.29232 4.23796 9.87581 3.21289 11.6353C2.18783 13.3947 1.3999 15.2689 0.849121 17.2578C0.29834 19.2467 0.0152995 21.3275 0 23.5C0 25.6572 0.275391 27.738 0.826172 29.7422C1.37695 31.7464 2.17253 33.613 3.21289 35.3418C4.25326 37.0706 5.47721 38.6541 6.88477 40.0923C8.29232 41.5304 9.87581 42.762 11.6353 43.7871C13.3947 44.8122 15.2689 45.6001 17.2578 46.1509C19.2467 46.7017 21.3275 46.9847 23.5 47C25.6572 47 27.738 46.7246 29.7422 46.1738C31.7464 45.623 33.613 44.8275 35.3418 43.7871C37.0706 42.7467 38.6541 41.5228 40.0923 40.1152C41.5304 38.7077 42.762 37.1242 43.7871 35.3647C44.8122 33.6053 45.6001 31.7311 46.1509 29.7422C46.7017 27.7533 46.9847 25.6725 47 23.5C47 21.3428 46.7246 19.262 46.1738 17.2578C45.623 15.2536 44.8275 13.387 43.7871 11.6582C42.7467 9.92936 41.5228 8.34587 40.1152 6.90771C38.7077 5.46956 37.1242 4.23796 35.3647 3.21289C33.6053 2.18783 31.7311 1.3999 29.7422 0.849121C27.7533 0.29834 25.6725 0.0152995 23.5 0ZM20.9067 23.5L13.0581 15.6514L15.6514 13.0581L23.5 20.9067L31.3486 13.0581L33.9419 15.6514L26.0933 23.5L33.9419 31.3486L31.3486 33.9419L23.5 26.0933L15.6514 33.9419L13.0581 31.3486L20.9067 23.5Z" fill="#11264E"/>
</svg>
