<svg width="42" height="26" viewBox="0 0 42 26" fill="none" xmlns="http://www.w3.org/2000/svg">
<path d="M26.7976 13.1796C26.7976 16.4226 24.0535 19.0516 20.6685 19.0516C17.2835 19.0516 14.5394 16.4226 14.5394 13.1796C14.5394 9.93652 17.2835 7.30755 20.6685 7.30755C24.0535 7.30752 26.7976 9.93656 26.7976 13.1796ZM20.6796 0.953125C17.1748 0.968672 13.5419 1.8219 10.103 3.45544C7.54961 4.71829 5.06121 6.49998 2.90116 8.69912C1.84025 9.82171 0.487085 11.4472 0.268311 13.1815C0.294165 14.6838 1.90563 16.5381 2.90116 17.6639C4.92673 19.7767 7.35033 21.5086 10.103 22.9089C13.31 24.4653 16.8597 25.3614 20.6796 25.4112C24.1877 25.3954 27.8197 24.5324 31.2548 22.9089C33.8082 21.646 36.2979 19.8631 38.458 17.6639C39.5188 16.5413 40.872 14.9158 41.0908 13.1815C41.0649 11.6792 39.4535 9.82484 38.458 8.69906C36.4324 6.58629 34.0075 4.85565 31.2548 3.45537C28.0495 1.90017 24.4911 1.01024 20.6796 0.953125ZM20.677 3.98923C25.9879 3.98923 30.2932 8.10529 30.2932 13.1828C30.2932 18.2603 25.9879 22.3764 20.677 22.3764C15.366 22.3764 11.0607 18.2603 11.0607 13.1828C11.0607 8.10529 15.366 3.98923 20.677 3.98923Z" fill="#1F2F4D"/>
</svg>
