<svg width="25" height="40" viewBox="0 0 25 40" fill="none" xmlns="http://www.w3.org/2000/svg">
<path d="M21.338 21.6429C23.6972 19.25 25 16.0625 25 12.6786C25 9.29018 23.7016 6.10714 21.338 3.71429C18.9789 1.32143 15.8363 0 12.5 0C9.16373 0 6.02113 1.31696 3.66197 3.71429C1.30282 6.11161 0 9.29018 0 12.6786C0 15.5268 0.919894 18.2321 2.61444 20.442C2.93574 20.8616 3.28345 21.2589 3.65757 21.6429C4.03169 22.0223 4.42782 22.375 4.83715 22.7009C6.58011 24.0759 8.63556 24.9509 10.8275 25.2455V30H5.80986C5.6162 30 5.45775 30.1607 5.45775 30.3571V33.0357C5.45775 33.2321 5.6162 33.3929 5.80986 33.3929H10.8275V39.6429C10.8275 39.8393 10.9859 40 11.1796 40H13.8204C14.0141 40 14.1725 39.8393 14.1725 39.6429V33.3929H19.1901C19.3838 33.3929 19.5423 33.2321 19.5423 33.0357V30.3571C19.5423 30.1607 19.3838 30 19.1901 30H14.1725V25.2455C16.8794 24.8795 19.375 23.6339 21.338 21.6429ZM12.5 21.9643C10.0528 21.9643 7.75968 21 6.02553 19.2455C4.29577 17.4911 3.34507 15.1607 3.34507 12.6786C3.34507 10.1964 4.29577 7.87054 6.02553 6.11161C7.75528 4.35268 10.0528 3.39286 12.5 3.39286C14.9472 3.39286 17.2403 4.35714 18.9745 6.11161C20.7042 7.86607 21.6549 10.1964 21.6549 12.6786C21.6549 15.1607 20.7042 17.4866 18.9745 19.2455C17.2403 21 14.9472 21.9643 12.5 21.9643Z" fill="#000000"/>
</svg>
