<svg width="25" height="23" viewBox="0 0 25 23" fill="none" xmlns="http://www.w3.org/2000/svg">
<path d="M22.7893 14.2485H23.2361C23.7049 14.2485 24.1544 14.0684 24.4853 13.7433C25.172 13.0715 25.172 11.9833 24.4826 11.3116L22.7893 14.2485ZM12.6005 0.789243L23.9592 11.8487C23.9593 11.8488 23.9593 11.8489 23.9594 11.8489C24.3467 12.2265 24.3466 12.8299 23.9609 13.2072L23.9597 13.2083C23.7728 13.392 23.5136 13.4985 23.2361 13.4985H22.0393H21.2893V14.2485V22.1402C21.2893 22.1833 21.2492 22.25 21.1568 22.25H14.5742V16.9811V16.2311H13.8242H10.7356H9.98561V16.9811V22.25H3.84419C3.75182 22.25 3.71174 22.1833 3.71174 22.1402V14.2485V13.4985H2.96174H1.76491C1.18719 13.4985 0.75 13.0448 0.75 12.5288C0.75 12.2786 0.852711 12.033 1.04184 11.8487L12.4005 0.789244L12.4012 0.788542C12.4125 0.777537 12.4269 0.767804 12.4442 0.760825C12.4615 0.753833 12.4807 0.75 12.5005 0.75C12.5203 0.75 12.5395 0.753833 12.5568 0.760825C12.5741 0.767804 12.5885 0.777535 12.5998 0.788543L12.6005 0.789243Z" fill="white" stroke="#7C7C7C" stroke-width="1.5"/>
</svg>
