<svg width="22" height="21" viewBox="0 0 22 21" fill="none" xmlns="http://www.w3.org/2000/svg">
<path d="M11.0519 0.721857L11.0526 0.722523L21.0482 10.7722C21.0483 10.7723 21.0483 10.7723 21.0484 10.7724C21.3837 11.11 21.3836 11.6586 21.0496 11.996L21.0486 11.9971C20.8901 12.1579 20.6746 12.2475 20.4478 12.2475H19.3946H18.6946V12.9475V20.1187C18.6946 20.1683 18.6569 20.2 18.618 20.2H12.8653V15.4307V14.7307H12.1653H9.44733H8.74733V15.4307V20.2H3.38289C3.34399 20.2 3.30633 20.1683 3.30633 20.1187V12.9475V12.2475H2.60633H1.55312C1.08711 12.2475 0.7 11.8642 0.7 11.3848C0.7 11.1553 0.791408 10.9346 0.952538 10.7724C0.952598 10.7723 0.952658 10.7723 0.952717 10.7722L10.9483 0.722523L10.949 0.721856C10.9561 0.714647 10.9644 0.709158 10.9732 0.705492C10.982 0.701829 10.9912 0.7 11.0005 0.7C11.0097 0.7 11.019 0.701829 11.0277 0.705492C11.0365 0.709158 11.0448 0.714647 11.0519 0.721857Z" stroke="#7C7C7C" stroke-width="1.4"/>
</svg>
