<svg width="19" height="17" viewBox="0 0 19 17" fill="none" xmlns="http://www.w3.org/2000/svg">
<path d="M4.20455 7.48203H10.9318V9.12648H4.20455V11.5931L0 8.30425L4.20455 5.01537V7.48203ZM3.36364 13.2376H5.64082C6.6118 14.0749 7.80926 14.6204 9.08949 14.8088C10.3697 14.9972 11.6784 14.8203 12.8583 14.2995C14.0383 13.7787 15.0396 12.936 15.7419 11.8725C16.4442 10.8091 16.8178 9.57013 16.8178 8.30425C16.8178 7.03838 16.4442 5.79939 15.7419 4.73596C15.0396 3.67254 14.0383 2.82985 12.8583 2.30902C11.6784 1.78819 10.3697 1.61134 9.08949 1.7997C7.80926 1.98806 6.6118 2.53362 5.64082 3.37092H3.36364C4.14624 2.34904 5.16178 1.5197 6.32958 0.948772C7.49739 0.377847 8.78527 0.0810745 10.0909 0.0820336C14.7352 0.0820336 18.5 3.76312 18.5 8.30425C18.5 12.8454 14.7352 16.5265 10.0909 16.5265C8.78527 16.5274 7.49739 16.2307 6.32958 15.6597C5.16178 15.0888 4.14624 14.2595 3.36364 13.2376Z" fill="#7C7C7C"/>
</svg>
