<svg width="34" height="34" viewBox="0 0 34 34" fill="none" xmlns="http://www.w3.org/2000/svg">
<path d="M32.7195 0.611328H22.1106C21.9717 0.611328 21.858 0.724995 21.858 0.863921V3.22145C21.858 3.36038 21.9717 3.47404 22.1106 3.47404H28.8633L20.473 11.8643C18.368 10.2435 15.8 9.36787 13.1015 9.36787C9.8641 9.36787 6.81615 10.6308 4.53018 12.921C2.24422 15.2112 0.977051 18.2549 0.977051 21.4923C0.977051 24.7297 2.24001 27.7777 4.53018 30.0636C6.81615 32.3538 9.8641 33.6167 13.1015 33.6167C16.3389 33.6167 19.3868 32.3538 21.6728 30.0636C23.963 27.7777 25.2259 24.7297 25.2259 21.4923C25.2259 18.7938 24.3503 16.2342 22.7337 14.1292L31.1198 5.74317V12.4832C31.1198 12.6221 31.2334 12.7358 31.3723 12.7358H33.7299C33.8688 12.7358 33.9825 12.6221 33.9825 12.4832V1.87429C33.9825 1.17966 33.4141 0.611328 32.7195 0.611328ZM13.1015 30.4172C8.18015 30.4172 4.17656 26.4137 4.17656 21.4923C4.17656 16.571 8.18015 12.5674 13.1015 12.5674C18.0228 12.5674 22.0264 16.571 22.0264 21.4923C22.0264 26.4137 18.0228 30.4172 13.1015 30.4172Z" fill="#000000"/>
</svg>
