<svg width="25" height="18" viewBox="0 0 25 18" fill="none" xmlns="http://www.w3.org/2000/svg">
<path d="M23.6806 8H1.31944C0.590735 8 0 8.40897 0 8.91346V9.00962C0 9.51411 0.590735 9.92308 1.31944 9.92308H23.6806C24.4093 9.92308 25 9.51411 25 9.00962V8.91346C25 8.40897 24.4093 8 23.6806 8Z" fill="#000000"/>
<path d="M23.6806 16H1.31944C0.590735 16 0 16.409 0 16.9135V17.0096C0 17.5141 0.590735 17.9231 1.31944 17.9231H23.6806C24.4093 17.9231 25 17.5141 25 17.0096V16.9135C25 16.409 24.4093 16 23.6806 16Z" fill="#000000"/>
<path d="M23.6806 0H1.31944C0.590735 0 0 0.40897 0 0.913461V1.00962C0 1.51411 0.590735 1.92308 1.31944 1.92308H23.6806C24.4093 1.92308 25 1.51411 25 1.00962V0.913461C25 0.40897 24.4093 0 23.6806 0Z" fill="#000000"/>
</svg>
