<svg width="43" height="42" viewBox="0 0 43 42" fill="none" xmlns="http://www.w3.org/2000/svg">
<path d="M20.8009 20.2993C21.3077 20.889 22.1402 20.889 22.647 20.2993L30.4728 11.1665C32.7532 8.51778 32.6244 4.12092 30.0638 1.67378C27.8282 -0.465473 24.5075 -0.0776089 22.4696 2.29148L21.6624 3.21804L20.9167 2.28796C18.8824 -0.0812075 15.5523 -0.468992 13.2646 1.67058C10.7743 4.11932 10.6295 8.51938 12.9244 11.1665L20.8009 20.2993ZM42.0125 27.1609C41.0627 25.7365 39.2514 25.4287 37.9635 26.4836L29.2978 33.5347H20.5671C19.9338 33.5347 19.4739 32.9549 19.4739 32.3271C19.4739 31.6277 19.9988 31.1195 20.5671 31.1195H26.2319C27.3251 31.1195 28.4581 30.2502 28.6477 28.9907C28.883 27.4632 27.7703 26.0021 26.3586 26.0021H14.7125C12.823 26.0021 10.8669 26.7419 9.34664 28.1014L5.98029 31.1195L1.97181 31.1175C1.3385 31.1175 0.878654 31.6993 0.878654 32.3987L0.87793 39.9324C0.87793 40.6361 1.40286 41.2119 1.97109 41.2119H27.0268C28.6217 41.2119 30.2064 40.6372 31.4936 39.5901L41.2741 31.6321C42.6857 30.5837 42.9608 28.5844 42.0125 27.1609Z" fill="#000000"/>
</svg>
