<svg width="25" height="25" viewBox="0 0 25 25" fill="none" xmlns="http://www.w3.org/2000/svg">
<path d="M22.7135 16.3006L22.7117 16.3021L17.5153 20.5303L17.3085 20.6986H17.042H11.8066C10.9171 20.6986 10.4011 19.9127 10.4011 19.2245C10.4011 18.4329 11.0108 17.7503 11.8066 17.7503H15.2035C15.5001 17.7503 15.8538 17.4885 15.9105 17.1121L15.9109 17.1096C15.9954 16.5606 15.582 16.1817 15.2795 16.1817H8.2959C7.35278 16.1817 6.35656 16.5536 5.57837 17.2494C5.57831 17.2495 5.57826 17.2495 5.5782 17.2496L3.56029 19.0588L3.34645 19.2505L3.05925 19.2503L0.751245 19.2492C0.750736 19.2547 0.750434 19.2608 0.750434 19.2674V19.2675L0.75 23.785C0.75 23.785 0.75 23.785 0.75 23.785C0.750005 23.7912 0.750618 23.797 0.751619 23.8022H15.6802C16.457 23.8022 17.2416 23.5215 17.8853 22.9979L23.7501 18.2259L23.763 18.2155L23.7763 18.2056C24.2838 17.8287 24.4023 17.0833 24.0423 16.5426L22.7135 16.3006ZM22.7135 16.3006C23.1219 15.9661 23.7032 16.0344 24.0421 16.5424L22.7135 16.3006ZM17.177 6.04749L12.5002 11.5053L7.79159 6.04567L7.79032 6.04421C6.67123 4.75339 6.74699 2.57028 7.94681 1.3827C8.96616 0.436156 10.4644 0.56419 11.4394 1.69104L11.8782 2.23838L12.4395 2.93844L13.0289 2.26189L13.5129 1.70629L13.5129 1.7063L13.516 1.70273C14.4996 0.559221 15.9973 0.442124 16.9827 1.3851L16.9831 1.38543C18.2202 2.56774 18.2942 4.74991 17.1782 6.04615L17.177 6.04749Z" fill="#FFFEFE" stroke="#7C7C7C" stroke-width="1.5"/>
</svg>
