<svg width="47" height="47" viewBox="0 0 47 47" fill="none" xmlns="http://www.w3.org/2000/svg">
<path d="M23.5 0C29.7326 0 35.7099 2.47589 40.117 6.88299C44.5241 11.2901 47 17.2674 47 23.5C47 29.7326 44.5241 35.7099 40.117 40.117C35.7099 44.5241 29.7326 47 23.5 47C17.2674 47 11.2901 44.5241 6.88299 40.117C2.47589 35.7099 0 29.7326 0 23.5C0 17.2674 2.47589 11.2901 6.88299 6.88299C11.2901 2.47589 17.2674 0 23.5 0ZM20.5726 28.1362L15.3522 22.9125C15.1651 22.7254 14.9429 22.5769 14.6984 22.4756C14.4538 22.3743 14.1918 22.3222 13.9271 22.3222C13.6624 22.3222 13.4004 22.3743 13.1558 22.4756C12.9113 22.5769 12.6891 22.7254 12.502 22.9125C12.124 23.2905 11.9117 23.8031 11.9117 24.3376C11.9117 24.8721 12.124 25.3848 12.502 25.7627L19.1491 32.4099C19.3358 32.5979 19.5578 32.7472 19.8024 32.8491C20.047 32.951 20.3093 33.0034 20.5743 33.0034C20.8392 33.0034 21.1015 32.951 21.3461 32.8491C21.5907 32.7472 21.8127 32.5979 21.9994 32.4099L35.7636 18.6422C35.9533 18.4558 36.1042 18.2338 36.2076 17.9888C36.311 17.7438 36.3648 17.4808 36.3661 17.2149C36.3673 16.949 36.3159 16.6855 36.2148 16.4396C36.1137 16.1937 35.9649 15.9702 35.7769 15.7821C35.589 15.5939 35.3657 15.4449 35.1199 15.3435C34.8741 15.2421 34.6107 15.1903 34.3448 15.1913C34.0789 15.1922 33.8158 15.2458 33.5707 15.3489C33.3256 15.452 33.1034 15.6026 32.9168 15.792L20.5726 28.1362Z" fill="#11264E"/>
</svg>
